<svg width="602" height="446" viewBox="0 0 602 446" fill="none" xmlns="http://www.w3.org/2000/svg">
<g clip-path="url(#clip0)">
<path d="M503.951 415.855C504.736 415.855 505.372 415.219 505.372 414.434C505.372 413.649 504.736 413.013 503.951 413.013C503.166 413.013 502.53 413.649 502.53 414.434C502.53 415.219 503.166 415.855 503.951 415.855Z" fill="#457172"/>
<path opacity="0.2" d="M504.551 413.147C504.803 413.376 504.965 413.687 505.007 414.024C505.049 414.361 504.968 414.702 504.78 414.986C504.591 415.269 504.308 415.475 503.98 415.566C503.653 415.658 503.303 415.629 502.996 415.484C503.147 415.622 503.326 415.726 503.521 415.788C503.716 415.85 503.922 415.869 504.125 415.844C504.329 415.819 504.524 415.751 504.698 415.643C504.872 415.536 505.021 415.392 505.134 415.221C505.248 415.051 505.323 414.858 505.355 414.656C505.387 414.454 505.375 414.247 505.319 414.05C505.264 413.853 505.166 413.671 505.034 413.515C504.901 413.359 504.736 413.234 504.551 413.147Z" fill="black"/>
<path d="M540.491 417.395C542.42 417.395 543.985 416.759 543.985 415.974C543.985 415.189 542.42 414.553 540.491 414.553C538.561 414.553 536.997 415.189 536.997 415.974C536.997 416.759 538.561 417.395 540.491 417.395Z" fill="#3F3D56"/>
<path opacity="0.2" d="M540.491 414.553C540.371 414.553 540.252 414.555 540.135 414.56C541.898 414.632 543.274 415.238 543.274 415.974C543.274 416.71 541.898 417.315 540.135 417.388C540.252 417.393 540.371 417.395 540.491 417.395C542.42 417.395 543.985 416.759 543.985 415.974C543.985 415.189 542.42 414.553 540.491 414.553Z" fill="black"/>
<path d="M545.051 415.974H527.521V414.079C527.521 413.985 527.484 413.894 527.417 413.828C527.35 413.761 527.26 413.724 527.166 413.724H517.454C517.359 413.724 517.269 413.761 517.202 413.828C517.136 413.894 517.098 413.985 517.098 414.079V415.974H506.912V414.79C506.912 414.695 506.875 414.605 506.808 414.538C506.741 414.472 506.651 414.434 506.557 414.434H501.345C501.251 414.434 501.161 414.472 501.094 414.538C501.027 414.605 500.99 414.695 500.99 414.79V415.974H499.569C499.522 415.974 499.476 415.983 499.433 416.001C499.39 416.018 499.351 416.045 499.318 416.077C499.285 416.11 499.258 416.149 499.241 416.192C499.223 416.235 499.213 416.282 499.213 416.328V439.66C499.213 439.706 499.222 439.752 499.24 439.795C499.258 439.838 499.284 439.878 499.317 439.911C499.35 439.944 499.389 439.97 499.432 439.988C499.475 440.006 499.521 440.015 499.568 440.015H545.051C545.145 440.015 545.235 439.978 545.302 439.911C545.368 439.845 545.406 439.755 545.406 439.66V416.329C545.406 416.235 545.369 416.145 545.302 416.078C545.236 416.012 545.146 415.974 545.052 415.974H545.051Z" fill="#3F3D56"/>
<path d="M545.406 425.685H499.213V430.185H545.406V425.685Z" fill="#83CBCD"/>
<path d="M522.31 436.936C527.281 436.936 531.311 432.906 531.311 427.935C531.311 422.964 527.281 418.935 522.31 418.935C517.338 418.935 513.308 422.964 513.308 427.935C513.308 432.906 517.338 436.936 522.31 436.936Z" fill="#83CBCD"/>
<path d="M522.309 434.633C526.009 434.633 529.008 431.634 529.008 427.935C529.008 424.236 526.009 421.237 522.309 421.237C518.61 421.237 515.611 424.236 515.611 427.935C515.611 431.634 518.61 434.633 522.309 434.633Z" fill="#3F3D56"/>
<path d="M527.521 427.935C527.522 428.642 527.378 429.343 527.098 429.992C526.948 430.343 526.76 430.675 526.536 430.983C526.094 431.596 525.525 432.105 524.867 432.476C524.21 432.846 523.479 433.07 522.727 433.13C521.974 433.191 521.217 433.087 520.509 432.827C519.8 432.566 519.157 432.155 518.623 431.621C518.089 431.087 517.678 430.444 517.417 429.735C517.156 429.027 517.053 428.27 517.114 427.518C517.174 426.766 517.398 426.035 517.768 425.378C518.139 424.72 518.648 424.151 519.261 423.71C519.569 423.486 519.902 423.297 520.252 423.147C521.045 422.807 521.91 422.668 522.769 422.744C523.629 422.821 524.456 423.109 525.176 423.584C525.897 424.058 526.488 424.704 526.897 425.464C527.307 426.223 527.521 427.072 527.521 427.935Z" fill="white"/>
<path d="M77.4692 0H76.0889V129.047H77.4692V0Z" fill="#E6E6E6"/>
<path d="M0.833122 71.3208C0.612239 71.321 0.40047 71.4089 0.244281 71.565C0.0880929 71.7212 0.00023932 71.933 0 72.1538V181.045C0.000210143 181.266 0.0880548 181.478 0.24425 181.634C0.400445 181.79 0.61223 181.878 0.833122 181.878H152.555C152.776 181.878 152.988 181.79 153.144 181.634C153.3 181.478 153.388 181.266 153.388 181.045V72.1538C153.388 71.933 153.3 71.7212 153.144 71.565C152.988 71.4089 152.776 71.321 152.555 71.3208H0.833122Z" fill="#E2A951"/>
<path d="M144.178 80.3066V157.691C144.178 157.947 144.128 158.2 144.03 158.436C143.932 158.673 143.789 158.887 143.608 159.068C143.427 159.249 143.212 159.393 142.976 159.491C142.74 159.589 142.486 159.639 142.231 159.639H10.8488C10.7552 159.64 10.6618 159.633 10.5695 159.617C10.1061 159.551 9.68222 159.319 9.37564 158.965C9.06905 158.612 8.90028 158.159 8.90027 157.691V80.3066C8.9001 79.7901 9.10515 79.2947 9.47032 78.9293C9.83549 78.5639 10.3309 78.3586 10.8475 78.3584H142.229C142.485 78.3583 142.738 78.4086 142.975 78.5064C143.211 78.6042 143.426 78.7476 143.607 78.9284C143.788 79.1092 143.931 79.3238 144.029 79.5601C144.127 79.7964 144.178 80.0496 144.178 80.3054L144.178 80.3066Z" fill="#F7E0E0"/>
<path d="M95.6237 159.949H11.7641C11.6591 159.951 11.5542 159.942 11.4507 159.924L51.1124 91.2329C51.3545 90.8051 51.7058 90.4492 52.1304 90.2016C52.5551 89.954 53.0379 89.8235 53.5294 89.8235C54.021 89.8235 54.5038 89.954 54.9284 90.2016C55.3531 90.4492 55.7044 90.8051 55.9464 91.2329L82.5645 137.33L83.8397 139.536L95.6237 159.949Z" fill="#CDD382"/>
<path opacity="0.2" d="M95.6233 159.949H66.9922L81.0468 139.536L82.0586 138.065L82.5645 137.33L83.84 139.536L95.6233 159.949Z" fill="black"/>
<path d="M142.316 159.949H69.7844L83.8396 139.536L84.8511 138.066L103.166 111.463C103.49 111.057 103.896 110.723 104.357 110.484C104.818 110.244 105.325 110.104 105.844 110.073C106.362 110.042 106.882 110.121 107.368 110.304C107.855 110.486 108.297 110.769 108.667 111.134C108.762 111.238 108.85 111.348 108.931 111.463L142.316 159.949Z" fill="#BDDAEE"/>
<path d="M76.7791 76.5998C78.3038 76.5998 79.5398 75.364 79.5398 73.8395C79.5398 72.315 78.3038 71.0791 76.7791 71.0791C75.2544 71.0791 74.0184 72.315 74.0184 73.8395C74.0184 75.364 75.2544 76.5998 76.7791 76.5998Z" fill="white"/>
<path d="M301.775 0H300.395V129.047H301.775V0Z" fill="#E6E6E6"/>
<path d="M225.139 71.3208C224.918 71.321 224.706 71.4089 224.55 71.565C224.394 71.7212 224.306 71.933 224.306 72.1538V181.045C224.306 181.266 224.394 181.478 224.55 181.634C224.706 181.79 224.918 181.878 225.139 181.878H376.861C377.082 181.878 377.294 181.79 377.45 181.634C377.606 181.478 377.694 181.266 377.694 181.045V72.1538C377.694 71.933 377.606 71.7212 377.45 71.565C377.294 71.4089 377.082 71.321 376.861 71.3208H225.139Z" fill="#E2A951"/>
<path d="M368.484 80.3066V157.691C368.484 157.947 368.433 158.2 368.336 158.436C368.238 158.673 368.094 158.887 367.914 159.068C367.733 159.249 367.518 159.393 367.282 159.491C367.046 159.589 366.792 159.639 366.536 159.639H235.155C235.061 159.64 234.968 159.633 234.875 159.617C234.412 159.551 233.988 159.319 233.681 158.965C233.375 158.612 233.206 158.159 233.206 157.691V80.3066C233.206 79.7901 233.411 79.2947 233.776 78.9293C234.141 78.5639 234.637 78.3586 235.153 78.3584H366.535C366.791 78.3583 367.044 78.4086 367.281 78.5064C367.517 78.6042 367.732 78.7476 367.913 78.9284C368.094 79.1092 368.237 79.3238 368.335 79.5601C368.433 79.7964 368.484 80.0496 368.484 80.3054V80.3066Z" fill="#CEEAFE"/>
<path d="M319.93 159.949H236.07C235.965 159.951 235.86 159.942 235.757 159.924L275.418 91.2329C275.66 90.8051 276.012 90.4492 276.436 90.2016C276.861 89.954 277.344 89.8235 277.835 89.8235C278.327 89.8235 278.81 89.954 279.234 90.2016C279.659 90.4492 280.01 90.8051 280.252 91.2329L306.87 137.33L308.146 139.536L319.93 159.949Z" fill="#33422F"/>
<path opacity="0.2" d="M319.929 159.949H291.298L305.353 139.536L306.365 138.065L306.87 137.33L308.146 139.536L319.929 159.949Z" fill="black"/>
<path d="M366.622 159.949H294.09L308.146 139.536L309.157 138.066L327.472 111.463C327.796 111.057 328.202 110.723 328.663 110.484C329.124 110.244 329.631 110.104 330.15 110.073C330.668 110.042 331.188 110.121 331.674 110.304C332.161 110.486 332.603 110.769 332.973 111.134C333.068 111.238 333.156 111.348 333.237 111.463L366.622 159.949Z" fill="#33422F"/>
<path d="M301.085 76.5998C302.61 76.5998 303.846 75.364 303.846 73.8395C303.846 72.315 302.61 71.0791 301.085 71.0791C299.56 71.0791 298.324 72.315 298.324 73.8395C298.324 75.364 299.56 76.5998 301.085 76.5998Z" fill="white"/>
<path d="M526.081 0H524.701V129.047H526.081V0Z" fill="#E6E6E6"/>
<path d="M449.445 71.3208C449.224 71.321 449.012 71.4089 448.856 71.565C448.7 71.7212 448.612 71.933 448.612 72.1538V181.045C448.612 181.266 448.7 181.478 448.856 181.634C449.012 181.79 449.224 181.878 449.445 181.878H601.167C601.388 181.878 601.599 181.79 601.756 181.634C601.912 181.478 602 181.266 602 181.045V72.1538C602 71.933 601.912 71.7212 601.756 71.565C601.599 71.4089 601.388 71.321 601.167 71.3208H449.445Z" fill="#E2A951"/>
<path d="M592.79 80.3066V157.691C592.79 157.947 592.74 158.2 592.642 158.436C592.544 158.673 592.401 158.887 592.22 159.068C592.039 159.249 591.824 159.393 591.588 159.491C591.352 159.589 591.098 159.639 590.843 159.639H459.461C459.367 159.64 459.274 159.633 459.181 159.617C458.718 159.551 458.294 159.319 457.988 158.965C457.681 158.612 457.512 158.159 457.512 157.691V80.3066C457.512 79.7901 457.717 79.2947 458.082 78.9293C458.447 78.5639 458.943 78.3586 459.459 78.3584H590.841C591.097 78.3583 591.35 78.4086 591.587 78.5064C591.823 78.6042 592.038 78.7476 592.219 78.9284C592.4 79.1092 592.543 79.3238 592.641 79.5601C592.739 79.7964 592.79 80.0496 592.79 80.3054V80.3066Z" fill="#FFEAFC"/>
<path d="M544.236 159.949H460.376C460.271 159.951 460.166 159.942 460.062 159.924L499.724 91.2329C499.966 90.8051 500.318 90.4492 500.742 90.2016C501.167 89.954 501.65 89.8235 502.141 89.8235C502.633 89.8235 503.116 89.954 503.54 90.2016C503.965 90.4492 504.316 90.8051 504.558 91.2329L531.176 137.33L532.452 139.536L544.236 159.949Z" fill="#86DE9F"/>
<path opacity="0.2" d="M544.235 159.949H515.604L529.659 139.536L530.67 138.065L531.176 137.33L532.452 139.536L544.235 159.949Z" fill="black"/>
<path d="M590.928 159.949H518.396L532.451 139.536L533.463 138.066L551.778 111.463C552.102 111.057 552.508 110.723 552.969 110.484C553.43 110.244 553.937 110.104 554.455 110.073C554.974 110.042 555.494 110.121 555.98 110.304C556.467 110.486 556.909 110.769 557.279 111.134C557.374 111.238 557.462 111.348 557.543 111.463L590.928 159.949Z" fill="#86DE9F"/>
<path d="M525.391 76.5998C526.915 76.5998 528.151 75.364 528.151 73.8395C528.151 72.315 526.915 71.0791 525.391 71.0791C523.866 71.0791 522.63 72.315 522.63 73.8395C522.63 75.364 523.866 76.5998 525.391 76.5998Z" fill="white"/>
<path d="M472.565 285.041L473.854 293.849C474.029 295.045 473.923 296.266 473.544 297.415C473.166 298.563 472.525 299.608 471.673 300.465C470.82 301.323 469.78 301.971 468.634 302.357C467.488 302.743 466.268 302.857 465.07 302.69C463.907 302.528 462.796 302.105 461.82 301.453C460.844 300.801 460.028 299.937 459.433 298.925C458.837 297.914 458.479 296.781 458.383 295.611C458.287 294.441 458.458 293.265 458.881 292.17L463.254 280.852L460.926 204.514L474.427 199.393L472.565 285.041Z" fill="#A0616A"/>
<path d="M434.391 158.431C444.675 158.431 453.012 150.095 453.012 139.812C453.012 129.529 444.675 121.193 434.391 121.193C424.107 121.193 415.77 129.529 415.77 139.812C415.77 150.095 424.107 158.431 434.391 158.431Z" fill="#A0616A"/>
<path d="M456.737 174.723L422.287 173.327C426.112 164.952 427.629 156.851 426.011 149.122H448.822C447.623 156.411 450.934 165.163 456.737 174.723Z" fill="#A0616A"/>
<path d="M451.15 247.337L400.407 251.061L402.252 222.391C396.404 208.483 397.338 198.44 404.221 191.787L404.844 182.1C405.043 179 406.21 176.04 408.179 173.637C410.148 171.234 412.822 169.508 415.823 168.703L424.615 166.345C435.999 173.013 445.075 172.922 451.616 165.414L462.08 170.773C464.615 172.071 466.695 174.11 468.044 176.618C469.393 179.126 469.947 181.985 469.633 184.816L451.15 247.337Z" fill="#ECB244"/>
<path d="M373.406 250.13L359.083 257.649C357.857 258.292 356.451 258.505 355.09 258.254C353.729 258.002 352.492 257.3 351.578 256.261C350.863 255.449 350.374 254.464 350.16 253.403C349.947 252.343 350.015 251.245 350.359 250.219C350.703 249.194 351.311 248.277 352.121 247.56C352.931 246.843 353.916 246.352 354.976 246.135L365.026 244.079L396.217 231.977L401.338 195.67L415.77 199.393L412.976 242.217L373.406 250.13Z" fill="#A0616A"/>
<path d="M475.358 201.721L459.53 211.03L458.599 173.792L461.328 172.861C465.049 172.861 468.617 174.339 471.248 176.97C473.88 179.601 475.358 183.169 475.358 186.89V201.721Z" fill="#ECB244"/>
<path d="M464.418 430.037L450.959 427.932C448.241 381.952 442.767 339.028 432.994 300.867C410.394 330.811 391.449 374.942 375.268 429.804L359.44 425.615L400.873 245.01L450.219 244.079C470.401 271.708 464.492 357.038 464.418 430.037Z" fill="#2F2E41"/>
<path d="M368.279 445.929L344.893 442.651C344.244 442.56 343.623 442.332 343.069 441.982C342.516 441.632 342.043 441.168 341.683 440.622C341.323 440.075 341.083 439.458 340.98 438.811C340.877 438.164 340.912 437.503 341.085 436.872C341.321 436.005 341.806 435.226 342.479 434.631C343.152 434.036 343.985 433.65 344.874 433.522L349.03 432.922L362.169 424.898L373.038 427.796L376.261 437.306C376.509 438.433 376.481 439.604 376.178 440.718C375.876 441.832 375.308 442.856 374.524 443.703C373.74 444.55 372.762 445.195 371.675 445.583C370.587 445.97 369.422 446.089 368.279 445.929Z" fill="#2F2E41"/>
<path d="M459.989 445.929L436.603 442.651C435.955 442.56 435.333 442.332 434.779 441.982C434.226 441.632 433.753 441.168 433.393 440.622C433.033 440.075 432.793 439.458 432.69 438.811C432.587 438.164 432.622 437.503 432.795 436.872C433.031 436.005 433.516 435.226 434.189 434.631C434.862 434.036 435.695 433.65 436.584 433.522L440.74 432.922L453.879 424.898L464.748 427.796L467.971 437.306C468.219 438.433 468.191 439.604 467.888 440.718C467.586 441.832 467.018 442.856 466.234 443.703C465.45 444.55 464.472 445.195 463.385 445.583C462.297 445.97 461.132 446.089 459.989 445.929Z" fill="#2F2E41"/>
<path d="M418.563 208.703C414.33 199.4 407.021 195.796 394.821 201.255L396.466 189.125C397.083 184.57 399.02 180.295 402.036 176.827C405.052 173.358 409.017 170.847 413.442 169.603L418.563 208.703Z" fill="#ECB244"/>
<path d="M412.414 130.259C412.414 130.259 409.485 107.463 433.387 114.939C433.387 114.939 450.458 111.807 456.057 133.158L461.725 155.539L458.963 154.035L457.675 156.85L453.198 157.984L451.282 154.182L450.356 158.799L413.689 162.454C413.689 162.454 430.111 152.743 430.372 135.338L427.243 138.644L412.414 130.259Z" fill="#2F2E41"/>
<path d="M453.044 124.381C458.136 124.381 462.264 120.253 462.264 115.162C462.264 110.07 458.136 105.943 453.044 105.943C447.952 105.943 443.824 110.07 443.824 115.162C443.824 120.253 447.952 124.381 453.044 124.381Z" fill="#2F2E41"/>
<path d="M443.544 112.905C443.695 110.566 444.733 108.373 446.445 106.772C448.157 105.171 450.415 104.283 452.759 104.289C452.569 104.264 452.38 104.235 452.186 104.223C450.978 104.145 449.766 104.306 448.62 104.697C447.474 105.087 446.416 105.7 445.507 106.499C444.598 107.298 443.855 108.269 443.32 109.355C442.786 110.442 442.471 111.623 442.394 112.831C442.316 114.039 442.477 115.251 442.868 116.397C443.258 117.542 443.871 118.6 444.67 119.509C445.47 120.419 446.441 121.161 447.527 121.696C448.614 122.23 449.795 122.545 451.003 122.622C451.197 122.635 451.388 122.63 451.58 122.63C449.255 122.336 447.129 121.166 445.636 119.359C444.143 117.552 443.395 115.244 443.544 112.905Z" fill="#2F2E41"/>
<path d="M85.4432 199.206V217.516C85.4432 217.576 85.4313 217.636 85.4082 217.692C85.385 217.748 85.3511 217.799 85.3083 217.842C85.2656 217.884 85.2148 217.918 85.1589 217.942C85.1029 217.965 85.043 217.977 84.9825 217.977H53.8973C53.8752 217.977 53.8531 217.975 53.8312 217.972C53.7216 217.956 53.6213 217.901 53.5488 217.817C53.4762 217.734 53.4363 217.627 53.4363 217.516V199.206C53.4363 199.146 53.4482 199.086 53.4713 199.03C53.4944 198.974 53.5284 198.923 53.5712 198.881C53.6139 198.838 53.6647 198.804 53.7206 198.781C53.7766 198.757 53.8365 198.746 53.897 198.745H84.9822C85.0427 198.745 85.1027 198.757 85.1586 198.781C85.2145 198.804 85.2653 198.838 85.3081 198.88C85.3509 198.923 85.3849 198.974 85.4081 199.03C85.4313 199.086 85.4432 199.146 85.4432 199.206V199.206Z" fill="#A5A5A5"/>
<path d="M317.341 199.206V217.516C317.341 217.576 317.329 217.636 317.306 217.692C317.283 217.748 317.249 217.799 317.206 217.842C317.163 217.884 317.113 217.918 317.057 217.942C317.001 217.965 316.941 217.977 316.88 217.977H285.795C285.773 217.977 285.751 217.975 285.729 217.972C285.619 217.956 285.519 217.901 285.447 217.817C285.374 217.734 285.334 217.627 285.334 217.516V199.206C285.334 199.146 285.346 199.086 285.369 199.03C285.392 198.974 285.426 198.923 285.469 198.881C285.512 198.838 285.563 198.804 285.619 198.781C285.674 198.757 285.734 198.746 285.795 198.745H316.88C316.941 198.745 317.001 198.757 317.056 198.781C317.112 198.804 317.163 198.838 317.206 198.88C317.249 198.923 317.283 198.974 317.306 199.03C317.329 199.086 317.341 199.146 317.341 199.206L317.341 199.206Z" fill="#33422F"/>
<path d="M541.647 199.206V217.516C541.647 217.576 541.635 217.636 541.612 217.692C541.589 217.748 541.555 217.799 541.512 217.842C541.469 217.884 541.419 217.918 541.363 217.942C541.307 217.965 541.247 217.977 541.186 217.977H510.101C510.079 217.977 510.057 217.975 510.035 217.972C509.925 217.956 509.825 217.901 509.753 217.817C509.68 217.734 509.64 217.627 509.64 217.516V199.206C509.64 199.146 509.652 199.086 509.675 199.03C509.698 198.974 509.732 198.923 509.775 198.881C509.818 198.838 509.869 198.804 509.924 198.781C509.98 198.757 510.04 198.746 510.101 198.745H541.186C541.247 198.745 541.306 198.757 541.362 198.781C541.418 198.804 541.469 198.838 541.512 198.88C541.555 198.923 541.589 198.974 541.612 199.03C541.635 199.086 541.647 199.146 541.647 199.206L541.647 199.206Z" fill="#A5A5A5"/>
</g>
<defs>
<clipPath id="clip0">
<rect width="602" height="446" fill="white"/>
</clipPath>
</defs>
</svg>
